<?xml version="1.0" encoding="UTF-8"?>
<svg id="Layer_2" data-name="Layer 2" xmlns="http://www.w3.org/2000/svg" viewBox="0 0 1204.14 425.51">
  <defs>
    <style>
      .cls-1 {
        fill: #231f20;
      }
    </style>
  </defs>
  <g id="Layer_1-2" data-name="Layer 1">
    <g>
      <g>
        <path class="cls-1" d="M471.39,100.19L435.92,5.13h14.27l24.39,67.34c.55,1.29,1.11,2.77,1.66,4.43s1.11,3.28,1.66,4.85c.55,1.57,1.06,2.96,1.52,4.16h.83c.37-1.11.83-2.45,1.39-4.02.55-1.57,1.11-3.16,1.66-4.78.55-1.61,1.11-3.16,1.66-4.64l24.11-67.34h13.86l-35.61,95.06h-15.94Z"/>
        <path class="cls-1" d="M533.89,13.58V0h12.19v13.58h-12.19ZM533.89,100.19V27.3h12.19v72.89h-12.19Z"/>
        <path class="cls-1" d="M590.56,101.85c-4.99,0-9.38-.51-13.16-1.52-3.79-1.02-6.93-2.49-9.42-4.43-2.49-1.94-4.39-4.25-5.68-6.93-1.29-2.68-1.94-5.73-1.94-9.15v-1.32c0-.42.05-.76.14-1.04h12.06c-.09.37-.14.69-.14.97v.83c.09,3.23.95,5.77,2.56,7.62,1.62,1.85,3.86,3.14,6.72,3.88,2.86.74,6.05,1.11,9.56,1.11,3.05,0,5.87-.39,8.45-1.18,2.59-.78,4.64-1.99,6.17-3.6,1.52-1.62,2.29-3.67,2.29-6.17,0-3.05-.99-5.38-2.98-7-1.99-1.61-4.6-2.89-7.83-3.81-3.23-.92-6.61-1.89-10.12-2.91-2.96-.83-5.91-1.75-8.87-2.77-2.96-1.02-5.61-2.26-7.97-3.74-2.36-1.48-4.25-3.4-5.68-5.75-1.43-2.36-2.15-5.33-2.15-8.94,0-3.23.67-6.1,2.01-8.59,1.34-2.49,3.26-4.62,5.75-6.37,2.49-1.75,5.52-3.07,9.08-3.95,3.56-.88,7.5-1.32,11.85-1.32,4.62,0,8.66.51,12.12,1.52,3.46,1.02,6.35,2.45,8.66,4.3,2.31,1.85,4.02,3.95,5.13,6.31,1.11,2.36,1.66,4.87,1.66,7.55v1.59c0,.51-.05.9-.14,1.18h-11.92v-1.52c0-1.85-.48-3.62-1.45-5.34-.97-1.71-2.63-3.09-4.99-4.16-2.36-1.06-5.61-1.59-9.77-1.59-2.68,0-4.99.21-6.93.62-1.94.42-3.56,1.06-4.85,1.94-1.29.88-2.26,1.89-2.91,3.05-.65,1.16-.97,2.47-.97,3.95,0,2.4.78,4.25,2.36,5.54,1.57,1.29,3.67,2.36,6.3,3.19,2.63.83,5.47,1.76,8.52,2.77,3.23.92,6.53,1.87,9.91,2.84,3.37.97,6.47,2.2,9.28,3.67,2.82,1.48,5.08,3.49,6.79,6.03,1.71,2.54,2.56,5.89,2.56,10.05,0,3.88-.74,7.25-2.22,10.12-1.48,2.86-3.58,5.22-6.3,7.07-2.73,1.85-5.91,3.21-9.56,4.09-3.65.88-7.65,1.32-11.99,1.32Z"/>
        <path class="cls-1" d="M658.32,101.85c-7.02,0-12.66-1.8-16.91-5.4-4.25-3.6-6.37-9.88-6.37-18.85V27.3h12.19v48.64c0,3.05.37,5.54,1.11,7.48.74,1.94,1.8,3.46,3.19,4.57,1.39,1.11,3.02,1.89,4.92,2.36,1.89.46,3.95.69,6.17.69,3.51,0,6.74-.83,9.7-2.49,2.96-1.66,5.38-4.09,7.27-7.27,1.89-3.19,2.84-6.9,2.84-11.16V27.3h12.19v72.89h-9.84l-1.11-10.95h-.97c-1.94,2.96-4.14,5.36-6.58,7.21-2.45,1.85-5.17,3.21-8.18,4.09-3,.88-6.21,1.32-9.63,1.32Z"/>
        <path class="cls-1" d="M731.9,101.85c-2.68,0-5.36-.32-8.04-.97-2.68-.65-5.17-1.71-7.48-3.19-2.31-1.48-4.16-3.53-5.54-6.17s-2.08-5.93-2.08-9.91c0-4.99,1.2-9.1,3.6-12.33,2.4-3.23,5.75-5.75,10.05-7.55,4.3-1.8,9.4-3.05,15.31-3.74,5.91-.69,12.33-1.04,19.26-1.04v-8.31c0-2.68-.46-4.99-1.39-6.93-.92-1.94-2.56-3.44-4.92-4.5-2.36-1.06-5.71-1.59-10.05-1.59s-7.46.53-9.91,1.59c-2.45,1.06-4.16,2.43-5.13,4.09-.97,1.66-1.45,3.51-1.45,5.54v2.08h-11.78c-.09-.46-.14-.92-.14-1.39v-1.66c0-4.43,1.22-8.15,3.67-11.15,2.45-3,5.89-5.27,10.32-6.79,4.43-1.52,9.51-2.29,15.24-2.29,6.1,0,11.2.88,15.31,2.63,4.11,1.76,7.21,4.25,9.28,7.48,2.08,3.23,3.12,7.11,3.12,11.64v39.49c0,1.76.42,2.98,1.25,3.67.83.69,1.85,1.04,3.05,1.04h5.4v8.04c-1.29.55-2.73,1.04-4.3,1.45-1.57.42-3.37.62-5.4.62-2.4,0-4.39-.48-5.96-1.45-1.57-.97-2.77-2.31-3.6-4.02-.83-1.71-1.39-3.62-1.66-5.75h-.97c-1.66,2.31-3.77,4.32-6.3,6.03-2.54,1.71-5.38,3.03-8.52,3.95-3.14.92-6.56,1.39-10.25,1.39ZM734.95,91.59c2.96,0,5.75-.46,8.38-1.39,2.63-.92,4.96-2.24,7-3.95,2.03-1.71,3.65-3.76,4.85-6.17,1.2-2.4,1.8-5.03,1.8-7.9v-6.1c-7.48,0-13.86.42-19.12,1.25-5.27.83-9.31,2.31-12.12,4.43-2.82,2.13-4.23,5.13-4.23,9.01,0,2.49.55,4.53,1.66,6.1,1.11,1.57,2.68,2.75,4.71,3.53,2.03.79,4.39,1.18,7.07,1.18Z"/>
        <path class="cls-1" d="M789.13,100.19V0h12.19v100.19h-12.19Z"/>
        <path class="cls-1" d="M820.31,13.58V0h12.19v13.58h-12.19ZM820.31,100.19V27.3h12.19v72.89h-12.19Z"/>
        <path class="cls-1" d="M846.22,100.19v-6.51l40.6-56.12h-37.69v-10.25h55.15v6.37l-40.74,56.26h42.96v10.25h-60.28Z"/>
        <path class="cls-1" d="M936.01,101.85c-2.68,0-5.36-.32-8.04-.97-2.68-.65-5.17-1.71-7.48-3.19-2.31-1.48-4.16-3.53-5.54-6.17s-2.08-5.93-2.08-9.91c0-4.99,1.2-9.1,3.6-12.33,2.4-3.23,5.75-5.75,10.05-7.55,4.3-1.8,9.4-3.05,15.31-3.74,5.91-.69,12.33-1.04,19.26-1.04v-8.31c0-2.68-.46-4.99-1.39-6.93-.92-1.94-2.56-3.44-4.92-4.5-2.36-1.06-5.71-1.59-10.05-1.59s-7.46.53-9.91,1.59c-2.45,1.06-4.16,2.43-5.13,4.09-.97,1.66-1.46,3.51-1.46,5.54v2.08h-11.78c-.09-.46-.14-.92-.14-1.39v-1.66c0-4.43,1.22-8.15,3.67-11.15,2.45-3,5.89-5.27,10.32-6.79,4.43-1.52,9.51-2.29,15.24-2.29,6.1,0,11.2.88,15.31,2.63,4.11,1.76,7.21,4.25,9.28,7.48,2.08,3.23,3.12,7.11,3.12,11.64v39.49c0,1.76.42,2.98,1.25,3.67.83.69,1.85,1.04,3.05,1.04h5.4v8.04c-1.29.55-2.73,1.04-4.3,1.45-1.57.42-3.37.62-5.4.62-2.4,0-4.39-.48-5.96-1.45-1.57-.97-2.77-2.31-3.6-4.02-.83-1.71-1.39-3.62-1.66-5.75h-.97c-1.66,2.31-3.77,4.32-6.3,6.03-2.54,1.71-5.38,3.03-8.52,3.95-3.14.92-6.56,1.39-10.25,1.39ZM939.06,91.59c2.96,0,5.75-.46,8.38-1.39,2.63-.92,4.96-2.24,7-3.95,2.03-1.71,3.65-3.76,4.85-6.17,1.2-2.4,1.8-5.03,1.8-7.9v-6.1c-7.48,0-13.86.42-19.12,1.25-5.27.83-9.31,2.31-12.12,4.43-2.82,2.13-4.23,5.13-4.23,9.01,0,2.49.55,4.53,1.66,6.1,1.11,1.57,2.68,2.75,4.71,3.53,2.03.79,4.39,1.18,7.07,1.18Z"/>
        <path class="cls-1" d="M1010.28,101.85c-3.79,0-6.74-.72-8.87-2.15-2.13-1.43-3.65-3.33-4.57-5.68-.92-2.36-1.39-4.87-1.39-7.55v-48.92h-9.42v-10.25h9.7l2.22-20.37h9.7v20.37h13.72v10.25h-13.72v47.11c0,2.31.42,4.04,1.25,5.2.83,1.16,2.4,1.73,4.71,1.73h7.76v8.04c-.92.46-2.03.83-3.33,1.11-1.29.28-2.61.53-3.95.76-1.34.23-2.61.35-3.81.35Z"/>
        <path class="cls-1" d="M1034.4,13.58V0h12.19v13.58h-12.19ZM1034.4,100.19V27.3h12.19v72.89h-12.19Z"/>
        <path class="cls-1" d="M1095.5,101.85c-7.39,0-13.6-1.36-18.64-4.09-5.04-2.72-8.87-6.9-11.5-12.54-2.63-5.63-3.95-12.79-3.95-21.48s1.32-15.96,3.95-21.55c2.63-5.59,6.47-9.75,11.5-12.47,5.03-2.72,11.25-4.09,18.64-4.09s13.6,1.36,18.64,4.09c5.03,2.73,8.84,6.88,11.43,12.47,2.59,5.59,3.88,12.77,3.88,21.55s-1.29,15.84-3.88,21.48c-2.59,5.64-6.4,9.82-11.43,12.54-5.04,2.72-11.25,4.09-18.64,4.09ZM1095.5,91.59c4.71,0,8.64-.92,11.78-2.77,3.14-1.85,5.52-4.73,7.14-8.66,1.62-3.93,2.42-8.89,2.42-14.9v-3.05c0-6.1-.81-11.09-2.42-14.97-1.62-3.88-4-6.74-7.14-8.59-3.14-1.85-7.07-2.77-11.78-2.77s-8.66.92-11.85,2.77c-3.19,1.85-5.57,4.71-7.14,8.59-1.57,3.88-2.36,8.87-2.36,14.97v3.05c0,6.01.78,10.97,2.36,14.9,1.57,3.93,3.95,6.81,7.14,8.66,3.19,1.85,7.14,2.77,11.85,2.77Z"/>
        <path class="cls-1" d="M1144.56,100.19V27.3h9.84l1.11,10.95h.97c1.94-2.96,4.13-5.36,6.58-7.21,2.45-1.85,5.17-3.21,8.18-4.09,3-.88,6.21-1.32,9.63-1.32,4.62,0,8.66.79,12.12,2.36,3.46,1.57,6.19,4.11,8.18,7.62,1.99,3.51,2.98,8.27,2.98,14.27v50.3h-12.19v-48.64c0-3.05-.39-5.54-1.18-7.48-.79-1.94-1.85-3.46-3.19-4.57-1.34-1.11-2.96-1.89-4.85-2.36-1.89-.46-4-.69-6.3-.69-3.42,0-6.65.83-9.7,2.49s-5.47,4.07-7.27,7.21c-1.8,3.14-2.7,6.88-2.7,11.22v42.82h-12.19Z"/>
      </g>
      <g>
        <path class="cls-1" d="M471.81,252.55c-7.02,0-13.23-1.09-18.64-3.26-5.4-2.17-9.63-5.29-12.68-9.35-3.05-4.06-4.57-8.91-4.57-14.55,0-6.37,1.62-11.48,4.85-15.31,3.23-3.83,7.25-6.49,12.06-7.97v-.55c-4.16-2.03-7.65-4.69-10.46-7.97-2.82-3.28-4.23-7.74-4.23-13.37s1.45-10.39,4.36-14.27c2.91-3.88,7-6.81,12.26-8.8,5.27-1.99,11.41-2.98,18.43-2.98s12.86,1.06,18.08,3.19c5.22,2.13,9.31,5.15,12.26,9.08,2.96,3.93,4.43,8.52,4.43,13.79v2.36h-12.19v-1.52c-.09-3.79-1.13-6.9-3.12-9.35-1.99-2.45-4.67-4.25-8.04-5.4-3.37-1.15-7.27-1.73-11.71-1.73-2.96,0-5.77.3-8.45.9-2.68.6-5.06,1.55-7.14,2.84-2.08,1.29-3.72,2.98-4.92,5.06-1.2,2.08-1.8,4.6-1.8,7.55,0,3.79.92,6.91,2.77,9.35,1.85,2.45,4.27,4.27,7.27,5.47,3,1.2,6.26,1.8,9.77,1.8h8.59v10.12h-8.31c-3.7,0-7.25.46-10.67,1.39-3.42.92-6.17,2.61-8.24,5.06-2.08,2.45-3.12,5.94-3.12,10.46,0,4.16.99,7.53,2.98,10.12,1.99,2.59,4.8,4.48,8.45,5.68,3.65,1.2,7.87,1.8,12.68,1.8,5.17,0,9.47-.65,12.89-1.94,3.42-1.29,5.96-3.28,7.62-5.96,1.66-2.68,2.49-5.96,2.49-9.84v-26.88h23.97v10.25h-11.78v16.21c0,6.1-1.36,11.27-4.09,15.52-2.73,4.25-6.77,7.48-12.12,9.7-5.36,2.22-12.01,3.33-19.95,3.33Z"/>
        <path class="cls-1" d="M565.9,250.89v-95.06h13.16v95.06h-13.16Z"/>
        <path class="cls-1" d="M600.54,250.89v-72.89h9.84l1.11,10.95h.97c1.94-2.96,4.13-5.36,6.58-7.21,2.45-1.85,5.17-3.21,8.18-4.09,3-.88,6.21-1.32,9.63-1.32,4.62,0,8.66.79,12.12,2.36,3.46,1.57,6.19,4.11,8.18,7.62,1.99,3.51,2.98,8.27,2.98,14.27v50.3h-12.19v-48.64c0-3.05-.39-5.54-1.18-7.48-.79-1.94-1.85-3.46-3.19-4.57-1.34-1.11-2.96-1.89-4.85-2.36-1.89-.46-4-.69-6.3-.69-3.42,0-6.65.83-9.7,2.49-3.05,1.66-5.47,4.07-7.27,7.21-1.8,3.14-2.7,6.88-2.7,11.22v42.82h-12.19Z"/>
        <path class="cls-1" d="M695.6,252.55c-3.79,0-6.74-.72-8.87-2.15-2.13-1.43-3.65-3.33-4.57-5.68-.92-2.36-1.39-4.87-1.39-7.55v-48.92h-9.42v-10.25h9.7l2.22-20.37h9.7v20.37h13.72v10.25h-13.72v47.11c0,2.31.42,4.04,1.25,5.2.83,1.16,2.4,1.73,4.71,1.73h7.76v8.04c-.92.46-2.03.83-3.33,1.11-1.29.28-2.61.53-3.95.76-1.34.23-2.61.35-3.81.35Z"/>
        <path class="cls-1" d="M748.81,252.55c-7.21,0-13.28-1.36-18.22-4.09-4.94-2.72-8.68-6.9-11.22-12.54-2.54-5.63-3.81-12.79-3.81-21.48s1.27-15.96,3.81-21.55c2.54-5.59,6.3-9.75,11.29-12.47,4.99-2.72,11.22-4.09,18.71-4.09,6.84,0,12.56,1.32,17.18,3.95,4.62,2.63,8.11,6.56,10.46,11.78,2.36,5.22,3.53,11.76,3.53,19.61v5.82h-52.38c.18,5.82,1.04,10.6,2.56,14.34,1.52,3.74,3.81,6.47,6.86,8.18,3.05,1.71,6.88,2.56,11.5,2.56,3.14,0,5.89-.39,8.24-1.18,2.36-.78,4.34-1.92,5.96-3.39,1.62-1.48,2.84-3.23,3.67-5.27.83-2.03,1.29-4.25,1.39-6.65h11.92c-.09,3.88-.83,7.46-2.22,10.74-1.39,3.28-3.42,6.08-6.1,8.38-2.68,2.31-5.96,4.11-9.84,5.4-3.88,1.29-8.31,1.94-13.3,1.94ZM728.44,208.35h39.49c0-4.06-.46-7.48-1.39-10.25-.92-2.77-2.24-5.03-3.95-6.79-1.71-1.75-3.7-3.02-5.96-3.81-2.26-.78-4.83-1.18-7.69-1.18-4.25,0-7.85.79-10.81,2.36-2.96,1.57-5.22,3.97-6.79,7.21-1.57,3.23-2.54,7.39-2.91,12.47Z"/>
        <path class="cls-1" d="M795.64,250.89v-72.89h9.84l1.11,12.06h.97c.74-2.31,1.75-4.5,3.05-6.58,1.29-2.08,3.05-3.79,5.27-5.13,2.22-1.34,4.94-2.01,8.18-2.01,1.39,0,2.65.12,3.81.35,1.15.23,2.01.48,2.56.76v11.22h-4.57c-3.14,0-5.84.53-8.11,1.59-2.26,1.06-4.14,2.56-5.61,4.5-1.48,1.94-2.56,4.25-3.26,6.93-.69,2.68-1.04,5.54-1.04,8.59v40.6h-12.19Z"/>
        <path class="cls-1" d="M858.55,252.55c-2.68,0-5.36-.32-8.04-.97-2.68-.65-5.17-1.71-7.48-3.19-2.31-1.48-4.16-3.53-5.54-6.17s-2.08-5.93-2.08-9.91c0-4.99,1.2-9.1,3.6-12.33,2.4-3.23,5.75-5.75,10.05-7.55,4.3-1.8,9.4-3.05,15.31-3.74,5.91-.69,12.33-1.04,19.26-1.04v-8.31c0-2.68-.46-4.99-1.39-6.93-.92-1.94-2.56-3.44-4.92-4.5-2.36-1.06-5.71-1.59-10.05-1.59s-7.46.53-9.91,1.59c-2.45,1.06-4.16,2.43-5.13,4.09-.97,1.66-1.45,3.51-1.45,5.54v2.08h-11.78c-.09-.46-.14-.92-.14-1.39v-1.66c0-4.43,1.22-8.15,3.67-11.15,2.45-3,5.89-5.27,10.32-6.79,4.43-1.52,9.51-2.29,15.24-2.29,6.1,0,11.2.88,15.31,2.63,4.11,1.76,7.21,4.25,9.28,7.48,2.08,3.23,3.12,7.11,3.12,11.64v39.49c0,1.76.42,2.98,1.25,3.67.83.69,1.85,1.04,3.05,1.04h5.4v8.04c-1.29.55-2.73,1.04-4.3,1.45-1.57.42-3.37.62-5.4.62-2.4,0-4.39-.48-5.96-1.45-1.57-.97-2.77-2.31-3.6-4.02-.83-1.71-1.39-3.62-1.66-5.75h-.97c-1.66,2.31-3.77,4.32-6.3,6.03-2.54,1.71-5.38,3.03-8.52,3.95-3.14.92-6.56,1.39-10.25,1.39ZM861.6,242.3c2.96,0,5.75-.46,8.38-1.39,2.63-.92,4.96-2.24,7-3.95,2.03-1.71,3.65-3.76,4.85-6.17,1.2-2.4,1.8-5.03,1.8-7.9v-6.1c-7.48,0-13.86.42-19.12,1.25-5.27.83-9.31,2.31-12.12,4.43-2.82,2.13-4.23,5.13-4.23,9.01,0,2.49.55,4.53,1.66,6.1,1.11,1.57,2.68,2.75,4.71,3.53,2.03.79,4.39,1.18,7.07,1.18Z"/>
        <path class="cls-1" d="M943.49,252.55c-7.02,0-12.91-1.36-17.67-4.09-4.76-2.72-8.36-6.93-10.81-12.61-2.45-5.68-3.67-12.82-3.67-21.41s1.22-15.7,3.67-21.34c2.45-5.63,6.1-9.84,10.95-12.61s10.83-4.16,17.94-4.16c4.99,0,9.31.65,12.96,1.94,3.65,1.29,6.67,3.19,9.08,5.68,2.4,2.49,4.18,5.5,5.33,9.01,1.15,3.51,1.73,7.53,1.73,12.06h-12.33c0-4.25-.58-7.74-1.73-10.46-1.16-2.72-2.98-4.76-5.47-6.1-2.49-1.34-5.77-2.01-9.84-2.01s-7.58.9-10.53,2.7c-2.96,1.8-5.22,4.64-6.79,8.52-1.57,3.88-2.36,9.01-2.36,15.38v2.91c0,6.01.76,10.99,2.29,14.97,1.52,3.97,3.76,6.88,6.72,8.73,2.96,1.85,6.56,2.77,10.81,2.77s7.5-.74,10.05-2.22c2.54-1.48,4.39-3.6,5.54-6.37,1.15-2.77,1.73-6.1,1.73-9.98h11.92c0,4.07-.58,7.85-1.73,11.36-1.16,3.51-2.93,6.56-5.33,9.15-2.4,2.59-5.45,4.6-9.15,6.03-3.7,1.43-8.13,2.15-13.3,2.15Z"/>
        <path class="cls-1" d="M1004.74,252.55c-3.79,0-6.74-.72-8.87-2.15-2.13-1.43-3.65-3.33-4.57-5.68-.92-2.36-1.39-4.87-1.39-7.55v-48.92h-9.42v-10.25h9.7l2.22-20.37h9.7v20.37h13.72v10.25h-13.72v47.11c0,2.31.42,4.04,1.25,5.2.83,1.16,2.4,1.73,4.71,1.73h7.76v8.04c-.92.46-2.03.83-3.33,1.11-1.29.28-2.61.53-3.95.76-1.34.23-2.61.35-3.81.35Z"/>
        <path class="cls-1" d="M1028.85,164.28v-13.58h12.19v13.58h-12.19ZM1028.85,250.89v-72.89h12.19v72.89h-12.19Z"/>
        <path class="cls-1" d="M1089.96,252.55c-7.39,0-13.6-1.36-18.64-4.09-5.04-2.72-8.87-6.9-11.5-12.54-2.63-5.63-3.95-12.79-3.95-21.48s1.32-15.96,3.95-21.55c2.63-5.59,6.47-9.75,11.5-12.47,5.03-2.72,11.25-4.09,18.64-4.09s13.6,1.36,18.64,4.09c5.03,2.73,8.84,6.88,11.43,12.47,2.59,5.59,3.88,12.77,3.88,21.55s-1.29,15.84-3.88,21.48c-2.59,5.64-6.4,9.82-11.43,12.54-5.04,2.72-11.25,4.09-18.64,4.09ZM1089.96,242.3c4.71,0,8.64-.92,11.78-2.77,3.14-1.85,5.52-4.73,7.14-8.66,1.62-3.93,2.42-8.89,2.42-14.9v-3.05c0-6.1-.81-11.09-2.42-14.97-1.62-3.88-4-6.74-7.14-8.59-3.14-1.85-7.07-2.77-11.78-2.77s-8.66.92-11.85,2.77c-3.19,1.85-5.57,4.71-7.14,8.59-1.57,3.88-2.36,8.87-2.36,14.97v3.05c0,6.01.78,10.97,2.36,14.9,1.57,3.93,3.95,6.81,7.14,8.66,3.19,1.85,7.14,2.77,11.85,2.77Z"/>
        <path class="cls-1" d="M1139.01,250.89v-72.89h9.84l1.11,10.95h.97c1.94-2.96,4.13-5.36,6.58-7.21,2.45-1.85,5.17-3.21,8.18-4.09,3-.88,6.21-1.32,9.63-1.32,4.62,0,8.66.79,12.12,2.36,3.46,1.57,6.19,4.11,8.18,7.62,1.99,3.51,2.98,8.27,2.98,14.27v50.3h-12.19v-48.64c0-3.05-.39-5.54-1.18-7.48-.79-1.94-1.85-3.46-3.19-4.57-1.34-1.11-2.96-1.89-4.85-2.36-1.89-.46-4-.69-6.3-.69-3.42,0-6.65.83-9.7,2.49s-5.47,4.07-7.27,7.21c-1.8,3.14-2.7,6.88-2.7,11.22v42.82h-12.19Z"/>
      </g>
      <g>
        <path class="cls-1" d="M435.92,400.29v-95.06h35.47c9.98,0,18.48,1.66,25.5,4.99,7.02,3.33,12.4,8.48,16.14,15.45,3.74,6.98,5.61,16,5.61,27.09s-1.87,19.86-5.61,26.88c-3.74,7.02-9.12,12.22-16.14,15.59-7.02,3.37-15.52,5.06-25.5,5.06h-35.47ZM449.08,388.93h22.03c5.27,0,9.98-.67,14.13-2.01,4.16-1.34,7.71-3.4,10.67-6.17,2.96-2.77,5.2-6.35,6.72-10.74,1.52-4.39,2.29-9.63,2.29-15.73v-2.77c0-6.28-.76-11.62-2.29-16-1.52-4.39-3.74-7.97-6.65-10.74-2.91-2.77-6.44-4.83-10.6-6.17-4.16-1.34-8.92-2.01-14.27-2.01h-22.03v72.33Z"/>
        <path class="cls-1" d="M564.37,401.96c-7.21,0-13.28-1.36-18.22-4.09-4.94-2.72-8.68-6.9-11.22-12.54-2.54-5.63-3.81-12.79-3.81-21.48s1.27-15.96,3.81-21.55c2.54-5.59,6.3-9.75,11.29-12.47,4.99-2.72,11.22-4.09,18.71-4.09,6.84,0,12.56,1.32,17.18,3.95,4.62,2.63,8.11,6.56,10.46,11.78,2.36,5.22,3.53,11.76,3.53,19.61v5.82h-52.38c.18,5.82,1.04,10.6,2.56,14.34,1.52,3.74,3.81,6.47,6.86,8.18,3.05,1.71,6.88,2.56,11.5,2.56,3.14,0,5.89-.39,8.24-1.18,2.36-.78,4.34-1.92,5.96-3.39,1.62-1.48,2.84-3.23,3.67-5.27.83-2.03,1.29-4.25,1.39-6.65h11.92c-.09,3.88-.83,7.46-2.22,10.74-1.39,3.28-3.42,6.08-6.1,8.38-2.68,2.31-5.96,4.11-9.84,5.4-3.88,1.29-8.31,1.94-13.3,1.94ZM544,357.75h39.49c0-4.06-.46-7.48-1.39-10.25-.92-2.77-2.24-5.03-3.95-6.79-1.71-1.75-3.7-3.02-5.96-3.81-2.26-.78-4.83-1.18-7.69-1.18-4.25,0-7.85.79-10.81,2.36-2.96,1.57-5.22,3.97-6.79,7.21-1.57,3.23-2.54,7.39-2.91,12.47Z"/>
        <path class="cls-1" d="M636.71,401.96c-4.99,0-9.38-.51-13.16-1.52-3.79-1.02-6.93-2.49-9.42-4.43-2.49-1.94-4.39-4.25-5.68-6.93-1.29-2.68-1.94-5.73-1.94-9.15v-1.32c0-.42.05-.76.14-1.04h12.06c-.09.37-.14.69-.14.97v.83c.09,3.23.95,5.77,2.56,7.62,1.62,1.85,3.86,3.14,6.72,3.88,2.86.74,6.05,1.11,9.56,1.11,3.05,0,5.87-.39,8.45-1.18,2.59-.78,4.64-1.99,6.17-3.6,1.52-1.62,2.29-3.67,2.29-6.17,0-3.05-.99-5.38-2.98-7-1.99-1.61-4.6-2.89-7.83-3.81-3.23-.92-6.61-1.89-10.12-2.91-2.96-.83-5.91-1.75-8.87-2.77-2.96-1.02-5.61-2.26-7.97-3.74-2.36-1.48-4.25-3.4-5.68-5.75-1.43-2.36-2.15-5.33-2.15-8.94,0-3.23.67-6.1,2.01-8.59,1.34-2.49,3.26-4.62,5.75-6.37,2.49-1.75,5.52-3.07,9.08-3.95,3.56-.88,7.5-1.32,11.85-1.32,4.62,0,8.66.51,12.12,1.52,3.46,1.02,6.35,2.45,8.66,4.3,2.31,1.85,4.02,3.95,5.13,6.31,1.11,2.36,1.66,4.87,1.66,7.55v1.59c0,.51-.05.9-.14,1.18h-11.92v-1.52c0-1.85-.48-3.62-1.45-5.34-.97-1.71-2.63-3.09-4.99-4.16-2.36-1.06-5.61-1.59-9.77-1.59-2.68,0-4.99.21-6.93.62-1.94.42-3.56,1.06-4.85,1.94-1.29.88-2.26,1.89-2.91,3.05-.65,1.16-.97,2.47-.97,3.95,0,2.4.78,4.25,2.36,5.54,1.57,1.29,3.67,2.36,6.3,3.19,2.63.83,5.47,1.76,8.52,2.77,3.23.92,6.53,1.87,9.91,2.84,3.37.97,6.47,2.2,9.28,3.67,2.82,1.48,5.08,3.49,6.79,6.03,1.71,2.54,2.56,5.89,2.56,10.05,0,3.88-.74,7.25-2.22,10.12-1.48,2.86-3.58,5.22-6.3,7.07-2.73,1.85-5.91,3.21-9.56,4.09-3.65.88-7.65,1.32-11.99,1.32Z"/>
        <path class="cls-1" d="M681.88,313.69v-13.58h12.19v13.58h-12.19ZM681.88,400.29v-72.89h12.19v72.89h-12.19Z"/>
        <path class="cls-1" d="M725.39,425.51c-3.51,0-6.74-.72-9.7-2.15-2.96-1.43-5.31-3.49-7.07-6.17-1.76-2.68-2.63-5.87-2.63-9.56,0-4.07,1.13-7.44,3.39-10.12,2.26-2.68,4.96-4.66,8.11-5.96-2.31-1.11-4.11-2.65-5.4-4.64-1.29-1.99-1.94-4.18-1.94-6.58,0-3.23,1.18-5.96,3.53-8.18s5.24-3.69,8.66-4.43c-3.14-2.03-5.61-4.64-7.41-7.83-1.8-3.19-2.7-6.72-2.7-10.6,0-4.62,1.08-8.68,3.26-12.19,2.17-3.51,5.5-6.28,9.98-8.31,4.48-2.03,9.95-3.05,16.42-3.05,2.96,0,5.73.21,8.31.62,2.59.42,4.9,1.09,6.93,2.01,3.23-1.48,5.66-3.37,7.27-5.68,1.62-2.31,2.61-4.66,2.98-7.07h12.06c0,2.77-.62,5.38-1.87,7.83-1.25,2.45-2.93,4.48-5.06,6.1-2.13,1.62-4.71,2.7-7.76,3.26,2.31,2.22,4.04,4.71,5.2,7.48,1.15,2.77,1.73,5.77,1.73,9.01,0,4.62-1.09,8.71-3.26,12.26-2.17,3.56-5.43,6.35-9.77,8.38-4.34,2.03-9.79,3.05-16.35,3.05h-11.36c-2.49,0-4.53.48-6.1,1.46-1.57.97-2.36,2.52-2.36,4.64,0,1.85.78,3.35,2.36,4.5,1.57,1.16,3.6,1.73,6.1,1.73h29.65c5.36,0,9.75,1.78,13.16,5.33,3.42,3.56,5.13,8.11,5.13,13.65,0,3.97-.99,7.55-2.98,10.74-1.99,3.19-4.76,5.73-8.31,7.62-3.56,1.89-7.69,2.84-12.4,2.84h-29.79ZM728.85,416.23h26.19c2.12,0,4.06-.44,5.82-1.32,1.75-.88,3.14-2.1,4.16-3.67,1.02-1.57,1.52-3.28,1.52-5.13,0-3.14-.92-5.64-2.77-7.48-1.85-1.85-4.16-2.77-6.93-2.77h-27.99c-2.96,0-5.45.99-7.48,2.98-2.03,1.99-3.05,4.41-3.05,7.27,0,3.05,1.02,5.5,3.05,7.34,2.03,1.85,4.53,2.77,7.48,2.77ZM742.02,363.85c5.91,0,10.3-1.29,13.16-3.88,2.86-2.59,4.3-6.14,4.3-10.67s-1.43-7.94-4.3-10.53c-2.86-2.59-7.25-3.88-13.16-3.88s-10.32,1.29-13.23,3.88c-2.91,2.59-4.36,6.1-4.36,10.53,0,2.86.65,5.4,1.94,7.62,1.29,2.22,3.23,3.93,5.82,5.13,2.59,1.2,5.87,1.8,9.84,1.8Z"/>
        <path class="cls-1" d="M790.1,400.29v-72.89h9.84l1.11,10.95h.97c1.94-2.96,4.13-5.36,6.58-7.21,2.45-1.85,5.17-3.21,8.18-4.09,3-.88,6.21-1.32,9.63-1.32,4.62,0,8.66.79,12.12,2.36,3.46,1.57,6.19,4.11,8.18,7.62,1.99,3.51,2.98,8.27,2.98,14.27v50.3h-12.19v-48.64c0-3.05-.39-5.54-1.18-7.48-.79-1.94-1.85-3.46-3.19-4.57-1.34-1.11-2.96-1.89-4.85-2.36-1.89-.46-4-.69-6.3-.69-3.42,0-6.65.83-9.7,2.49-3.05,1.66-5.47,4.07-7.27,7.21-1.8,3.14-2.7,6.88-2.7,11.22v42.82h-12.19Z"/>
        <path class="cls-1" d="M899.43,400.29v-95.06h13.16v83.56h47.25v11.5h-60.42Z"/>
        <path class="cls-1" d="M989.64,401.96c-2.68,0-5.36-.32-8.04-.97-2.68-.65-5.17-1.71-7.48-3.19-2.31-1.48-4.16-3.53-5.54-6.17s-2.08-5.93-2.08-9.91c0-4.99,1.2-9.1,3.6-12.33,2.4-3.23,5.75-5.75,10.05-7.55,4.3-1.8,9.4-3.05,15.31-3.74,5.91-.69,12.33-1.04,19.26-1.04v-8.31c0-2.68-.46-4.99-1.39-6.93-.92-1.94-2.56-3.44-4.92-4.5-2.36-1.06-5.71-1.59-10.05-1.59s-7.46.53-9.91,1.59c-2.45,1.06-4.16,2.43-5.13,4.09-.97,1.66-1.46,3.51-1.46,5.54v2.08h-11.78c-.09-.46-.14-.92-.14-1.39v-1.66c0-4.43,1.22-8.15,3.67-11.15,2.45-3,5.89-5.27,10.32-6.79,4.43-1.52,9.51-2.29,15.24-2.29,6.1,0,11.2.88,15.31,2.63,4.11,1.76,7.21,4.25,9.28,7.48,2.08,3.23,3.12,7.11,3.12,11.64v39.49c0,1.76.42,2.98,1.25,3.67.83.69,1.85,1.04,3.05,1.04h5.4v8.04c-1.29.55-2.73,1.04-4.3,1.45-1.57.42-3.37.62-5.4.62-2.4,0-4.39-.48-5.96-1.45-1.57-.97-2.77-2.31-3.6-4.02-.83-1.71-1.39-3.62-1.66-5.75h-.97c-1.66,2.31-3.77,4.32-6.3,6.03-2.54,1.71-5.38,3.03-8.52,3.95-3.14.92-6.56,1.39-10.25,1.39ZM992.69,391.7c2.96,0,5.75-.46,8.38-1.39,2.63-.92,4.96-2.24,7-3.95,2.03-1.71,3.65-3.76,4.85-6.17,1.2-2.4,1.8-5.03,1.8-7.9v-6.1c-7.48,0-13.86.42-19.12,1.25-5.27.83-9.31,2.31-12.12,4.43-2.82,2.13-4.23,5.13-4.23,9.01,0,2.49.55,4.53,1.66,6.1,1.11,1.57,2.68,2.75,4.71,3.53,2.03.79,4.39,1.18,7.07,1.18Z"/>
        <path class="cls-1" d="M1081.51,401.96c-4.9,0-9.28-.99-13.16-2.98-3.88-1.99-7.07-5.01-9.56-9.08h-.97l-1.25,10.39h-9.7v-100.19h12.19v36.44h.83c1.66-2.59,3.6-4.66,5.82-6.24,2.22-1.57,4.71-2.72,7.48-3.46,2.77-.74,5.73-1.11,8.87-1.11,5.63,0,10.58,1.34,14.83,4.02,4.25,2.68,7.55,6.79,9.91,12.33s3.53,12.61,3.53,21.2c0,9.05-1.16,16.42-3.46,22.1-2.31,5.68-5.59,9.86-9.84,12.54-4.25,2.68-9.42,4.02-15.52,4.02ZM1078.6,391.29c4.16,0,7.64-.83,10.46-2.49,2.82-1.66,4.96-4.41,6.44-8.24,1.48-3.83,2.22-8.89,2.22-15.17v-2.91c0-6.1-.69-11.06-2.08-14.9-1.39-3.83-3.51-6.65-6.37-8.45-2.86-1.8-6.56-2.7-11.09-2.7-2.59,0-5.04.42-7.34,1.25-2.31.83-4.36,2.26-6.17,4.3-1.8,2.03-3.19,4.76-4.16,8.18-.97,3.42-1.45,7.62-1.45,12.61v2.22c0,5.73.67,10.53,2.01,14.41,1.34,3.88,3.46,6.84,6.37,8.87,2.91,2.03,6.63,3.05,11.15,3.05Z"/>
      </g>
      <g>
        <g>
          <rect class="cls-1" x="104.73" y=".07" width="8.52" height="33.46"/>
          <polygon class="cls-1" points="135.85 3.32 132.4 19.63 132.34 19.91 128.92 36.06 120.59 34.29 124 18.16 124.06 17.87 127.52 1.56 135.85 3.32"/>
          <polygon class="cls-1" points="157.29 11.23 150.51 26.44 150.39 26.71 143.67 41.79 135.88 38.32 142.61 23.24 142.73 22.97 149.51 7.76 157.29 11.23"/>
          <polygon class="cls-1" points="176.61 23.43 166.79 36.91 166.62 37.15 156.92 50.48 150.03 45.47 159.74 32.13 159.91 31.89 169.72 18.42 176.61 23.43"/>
          <polygon class="cls-1" points="192.95 39.34 180.56 50.5 180.34 50.7 168.09 61.74 162.38 55.41 174.63 44.38 174.85 44.18 187.24 33.01 192.95 39.34"/>
          <polygon class="cls-1" points="205.64 58.3 191.23 66.64 190.97 66.79 176.68 75.06 172.42 67.69 186.7 59.42 186.95 59.27 201.38 50.92 205.64 58.3"/>
          <polygon class="cls-1" points="214.13 79.54 198.28 84.68 198 84.77 182.31 89.87 179.68 81.76 195.38 76.67 195.65 76.58 211.5 71.43 214.13 79.54"/>
          <polygon class="cls-1" points="217.98 102.06 201.39 103.78 201.1 103.81 184.7 105.52 183.82 97.04 200.22 95.34 200.52 95.31 217.1 93.58 217.98 102.06"/>
          <polygon class="cls-1" points="218.98 121.39 202.58 123.09 202.29 123.12 186.43 124.77 185.7 124.85 184.91 117.22 184.91 117.21 184.82 116.37 184.99 116.36 185.55 116.3 186.7 116.18 201.41 114.65 201.7 114.62 218.1 112.91 218.15 113.36 218.98 121.39"/>
          <rect class="cls-1" x="189.17" y="133.52" width="33.46" height="8.52" transform="translate(-32.49 70.33) rotate(-17.99)"/>
          <rect class="cls-1" x="197.05" y="151.18" width="33.46" height="8.52" transform="translate(-49.11 127.99) rotate(-30.06)"/>
          <rect class="cls-1" x="208.41" y="166.79" width="33.46" height="8.52" transform="translate(-56.62 194.68) rotate(-42.02)"/>
          <rect class="cls-1" x="222.76" y="179.72" width="33.46" height="8.52" transform="translate(-50.2 269.33) rotate(-53.95)"/>
          <rect class="cls-1" x="239.49" y="189.4" width="33.46" height="8.52" transform="translate(-25 348.8) rotate(-65.97)"/>
          <rect class="cls-1" x="257.85" y="195.36" width="33.46" height="8.52" transform="translate(22.42 426.92) rotate(-78.05)"/>
          <rect class="cls-1" x="289.55" y="184.9" width="8.52" height="33.46"/>
          <rect class="cls-1" x="296.31" y="199.37" width="33.46" height="8.52" transform="translate(49.01 467.73) rotate(-78.05)"/>
          <rect class="cls-1" x="314.68" y="205.34" width="33.46" height="8.52" transform="translate(5.02 426.93) rotate(-65.97)"/>
          <rect class="cls-1" x="331.41" y="215.02" width="33.46" height="8.52" transform="translate(-34.02 371.71) rotate(-53.95)"/>
          <rect class="cls-1" x="345.76" y="227.94" width="33.46" height="8.52" transform="translate(-62.24 302.35) rotate(-42.02)"/>
          <rect class="cls-1" x="357.12" y="243.56" width="33.46" height="8.52" transform="translate(-73.85 220.61) rotate(-30.06)"/>
          <rect class="cls-1" x="365" y="261.21" width="33.46" height="8.52" transform="translate(-63.33 130.87) rotate(-17.99)"/>
          <rect class="cls-1" x="369" y="280.11" width="33.46" height="8.52" transform="translate(-27.33 41.4) rotate(-5.93)"/>
          <rect class="cls-1" x="381.47" y="286.97" width="8.52" height="33.46" transform="translate(43.78 655.97) rotate(-84.07)"/>
          <rect class="cls-1" x="377.47" y="305.87" width="8.52" height="33.46" transform="translate(-42.99 586.04) rotate(-72.01)"/>
          <rect class="cls-1" x="369.59" y="323.53" width="8.52" height="33.46" transform="translate(-107.91 493.39) rotate(-59.94)"/>
          <rect class="cls-1" x="358.23" y="339.15" width="8.52" height="33.46" transform="translate(-144.54 386.96) rotate(-47.98)"/>
          <rect class="cls-1" x="343.88" y="352.07" width="8.52" height="33.46" transform="translate(-150.37 275.51) rotate(-36.05)"/>
          <rect class="cls-1" x="327.15" y="361.75" width="8.52" height="33.46" transform="translate(-125.41 167.77) rotate(-24.03)"/>
          <rect class="cls-1" x="308.78" y="367.72" width="8.52" height="33.46" transform="translate(-72.82 73.15) rotate(-11.95)"/>
          <rect class="cls-1" x="289.56" y="369.72" width="8.52" height="33.46"/>
          <rect class="cls-1" x="257.86" y="380.19" width="33.46" height="8.52" transform="translate(-158.38 573.48) rotate(-78.05)"/>
          <rect class="cls-1" x="239.49" y="374.22" width="33.46" height="8.52" transform="translate(-193.8 458.37) rotate(-65.97)"/>
          <rect class="cls-1" x="222.76" y="364.54" width="33.46" height="8.52" transform="translate(-199.63 345.39) rotate(-53.95)"/>
          <rect class="cls-1" x="208.41" y="351.62" width="33.46" height="8.52" transform="translate(-180.34 242.21) rotate(-42.02)"/>
          <rect class="cls-1" x="197.05" y="336" width="33.46" height="8.52" transform="translate(-141.69 152.86) rotate(-30.06)"/>
          <rect class="cls-1" x="189.17" y="318.34" width="33.46" height="8.52" transform="translate(-89.57 79.36) rotate(-17.99)"/>
          <rect class="cls-1" x="185.17" y="299.45" width="33.46" height="8.52" transform="translate(-30.32 22.5) rotate(-5.93)"/>
          <rect class="cls-1" x="184.17" y="280.11" width="33.46" height="8.52" transform="translate(-28.32 22.29) rotate(-5.93)"/>
          <rect class="cls-1" x="180.17" y="261.21" width="33.46" height="8.52" transform="translate(-72.36 73.78) rotate(-17.99)"/>
          <rect class="cls-1" x="172.3" y="243.56" width="33.46" height="8.52" transform="translate(-98.71 128.02) rotate(-30.06)"/>
          <rect class="cls-1" x="160.94" y="227.94" width="33.46" height="8.52" transform="translate(-109.76 178.62) rotate(-42.02)"/>
          <rect class="cls-1" x="146.59" y="215.02" width="33.46" height="8.52" transform="translate(-110.08 222.27) rotate(-53.95)"/>
          <rect class="cls-1" x="129.86" y="205.34" width="33.46" height="8.52" transform="translate(-104.54 258.12) rotate(-65.97)"/>
          <rect class="cls-1" x="111.49" y="199.37" width="33.46" height="8.52" transform="translate(-97.55 286.91) rotate(-78.05)"/>
          <rect class="cls-1" x="104.73" y="184.9" width="8.52" height="33.46"/>
          <polygon class="cls-1" points="97.39 184.14 97.05 185.75 93.98 200.27 93.92 200.56 90.47 216.87 82.13 215.11 85.58 198.8 85.64 198.52 88.04 187.15 89.06 182.38 97.39 184.14"/>
          <polygon class="cls-1" points="82.1 180.12 77.82 189.72 75.38 195.19 75.26 195.46 68.47 210.67 60.69 207.2 66.67 193.79 67.47 191.99 67.59 191.73 74.32 176.65 82.1 180.12"/>
          <polygon class="cls-1" points="67.95 172.96 58.24 186.3 58.07 186.54 48.26 200.01 41.37 195 51.18 181.52 51.36 181.28 61.07 167.95 67.95 172.96"/>
          <polygon class="cls-1" points="55.6 163.02 43.35 174.05 43.13 174.25 30.74 185.41 25.04 179.09 37.42 167.93 37.64 167.73 49.89 156.69 55.6 163.02"/>
          <polygon class="cls-1" points="45.57 150.75 31.28 159.01 31.03 159.16 16.61 167.51 12.34 160.13 26.75 151.79 27.01 151.64 41.3 143.37 45.57 150.75"/>
          <polygon class="cls-1" points="38.31 136.67 22.61 141.77 22.33 141.86 6.48 147 3.85 138.9 19.7 133.75 19.98 133.66 35.68 128.56 38.31 136.67"/>
          <polygon class="cls-1" points="34.16 121.39 17.76 123.09 17.47 123.12 .88 124.85 0 116.37 16.59 114.65 16.88 114.62 33.28 112.91 34.16 121.39"/>
          <polygon class="cls-1" points="34.16 97.04 33.28 105.52 16.88 103.81 16.59 103.78 0 102.06 .88 93.58 17.47 95.31 17.76 95.34 34.16 97.04"/>
          <polygon class="cls-1" points="38.31 81.76 35.68 89.87 19.98 84.77 19.7 84.68 3.85 79.54 6.48 71.43 22.33 76.58 22.61 76.67 38.31 81.76"/>
          <polygon class="cls-1" points="45.57 67.69 41.3 75.06 27.01 66.79 26.75 66.64 12.34 58.3 16.61 50.92 31.03 59.27 31.28 59.42 45.57 67.69"/>
          <polygon class="cls-1" points="55.6 55.41 49.89 61.74 37.64 50.7 37.42 50.5 25.04 39.34 30.74 33.01 43.13 44.18 43.35 44.38 55.6 55.41"/>
          <polygon class="cls-1" points="67.95 45.47 61.07 50.48 51.36 37.15 51.18 36.91 41.37 23.43 48.26 18.42 58.07 31.89 58.24 32.13 67.95 45.47"/>
          <polygon class="cls-1" points="82.1 38.32 74.32 41.79 67.59 26.71 67.47 26.44 60.69 11.23 68.47 7.76 75.26 22.97 75.38 23.24 82.1 38.32"/>
          <polygon class="cls-1" points="97.39 34.29 89.06 36.06 85.64 19.91 85.58 19.63 82.13 3.32 90.47 1.56 93.92 17.87 93.98 18.16 97.39 34.29"/>
        </g>
        <g>
          <path class="cls-1" d="M197.74,344.62c-1.39-2.66-2.67-5.37-3.85-8.15-.66-1.56-1.28-3.13-1.87-4.72-.02-.05-.04-.1-.05-.14-.97-2.63-1.83-5.28-2.58-7.96-.01-.05-.03-.1-.04-.15-1.28-4.55-2.25-9.17-2.92-13.85,0-.02,0-.04,0-.05-.4-2.78-.69-5.59-.87-8.42,0-.02,0-.04,0-.05l-.56.06c-.02.28-.05.57-.08.85h0c-1.8,17.24-9.38,33.2-21.8,45.63-14.32,14.32-33.37,22.21-53.62,22.21s-39.3-7.89-53.62-22.21c-14.32-14.32-22.21-33.37-22.21-53.62s7.89-39.3,22.21-53.63c13.19-13.19,30.4-20.93,48.86-22.06.17-.01.33-.02.5-.03,1.33-.07,2.68-.11,4.03-.12h.23c1.26,0,2.51-.02,3.76-.06.17,0,.33-.01.5-.02h0c.64-.02,1.27-.05,1.9-.09,1.76-.1,3.51-.24,5.26-.42.1,0,.2-.02.3-.03.07,0,.13-.01.2-.02.71-.08,1.42-.16,2.13-.25s1.42-.19,2.12-.29c1.41-.21,2.82-.45,4.22-.71.17-.03.35-.07.52-.1,2.43-.47,4.83-1.03,7.22-1.66.8-.21,1.59-.43,2.38-.67.17-.05.34-.1.51-.15.02,0,.04-.01.06-.02h0c1.41-.42,2.81-.87,4.21-1.35,1.39-.48,2.78-.99,4.16-1.53h0c.12-.05.25-.09.37-.15.06-.02.11-.05.17-.07.53-.21,1.05-.42,1.58-.64h0c.21-.08.41-.17.61-.25.04-.02.08-.03.12-.05.04-.02.07-.03.11-.05,1.34-.57,2.67-1.16,3.98-1.78,3.21-1.51,6.33-3.17,9.36-4.98.21-.12.41-.25.62-.37.48-.29.96-.58,1.43-.88.94-.59,1.87-1.19,2.78-1.81,4.61-3.09,8.98-6.53,13.1-10.32.38-.35.76-.7,1.13-1.06.75-.71,1.49-1.43,2.23-2.17,1.06-1.06,2.1-2.14,3.11-3.23.05-.06.11-.12.16-.18.66-.71,1.3-1.44,1.94-2.17.33-.38.66-.77.99-1.15,2.62-3.09,5.05-6.31,7.3-9.66,0,0,0-.01,0-.01.56-.83,1.1-1.67,1.64-2.52h0s.05-.08.07-.12h0c.04-.07.09-.13.13-.2-1.43-2.29-2.78-4.62-4.04-7.02,0-.02-.02-.04-.03-.06-.03-.06-.06-.11-.09-.17-1.07-2.04-2.07-4.11-3.02-6.22-.29-.64-.57-1.28-.84-1.93-.33-.78-.65-1.56-.96-2.35-.31-.79-.61-1.58-.9-2.37-.01-.04-.03-.08-.04-.12,0,0,0-.02,0-.03-.24-.66-.48-1.31-.7-1.97-.69-1.98-1.31-3.97-1.88-5.98,0,0,0-.02,0-.03-.01-.04-.02-.08-.03-.12-1.28-4.54-2.25-9.17-2.92-13.85,0-.02,0-.04,0-.05-.2-1.39-.37-2.79-.52-4.19-.07-.7-.14-1.4-.2-2.11-.06-.7-.11-1.41-.16-2.12,0-.02,0-.04,0-.05h0s-.55.04-.55.04h0s0,.02,0,.02c-.02.28-.05.57-.08.85h0c-1.8,17.24-9.38,33.2-21.8,45.63-.02.02-.04.04-.06.06-.58.58-1.18,1.15-1.78,1.72-.49.45-.98.9-1.47,1.34-.54.48-1.09.96-1.64,1.42-.18.15-.36.3-.54.45-1.09.89-2.19,1.76-3.32,2.59-.3.22-.6.44-.9.65-.65.46-1.3.91-1.96,1.35-.33.22-.66.44-.99.65-.6.39-1.21.77-1.82,1.14-.4.24-.8.48-1.21.71-3.76,2.18-7.68,4.02-11.75,5.52-.54.2-1.08.39-1.62.57-6.49,2.22-13.31,3.55-20.31,3.93-.17,0-.33.02-.5.02-1.25.06-2.5.09-3.76.09-.05,0-.09,0-.14,0-.03,0-.06,0-.09,0-1.35,0-2.69.03-4.03.08-.17,0-.33.01-.5.02-2.4.1-4.79.28-7.17.54-.17.02-.34.04-.51.06-2.85.32-5.68.75-8.49,1.3-.17.04-.35.07-.52.11-3.25.65-6.47,1.44-9.65,2.39h0c-.19.06-.38.11-.58.18-2.82.85-5.6,1.82-8.35,2.92-.12.05-.25.1-.37.15-.6.24-1.21.49-1.81.74-.08.03-.15.06-.23.09-.13.06-.26.11-.39.17-5.23,2.23-10.23,4.85-15,7.84-6.94,4.35-13.38,9.47-19.25,15.34-10,10-17.86,21.66-23.35,34.64-5.69,13.45-8.57,27.72-8.57,42.43s2.88,28.98,8.57,42.43c5.49,12.98,13.35,24.63,23.35,34.64,10.01,10,21.66,17.86,34.64,23.35,13.45,5.69,27.72,8.57,42.43,8.57s28.98-2.88,42.43-8.57c12.98-5.49,24.63-13.34,34.64-23.35,5.78-5.78,10.84-12.11,15.14-18.92,0,0,0,0,0,0,.02-.04.05-.08.08-.12.04-.07.09-.13.13-.2-1.43-2.29-2.78-4.62-4.04-7.01-.04-.07-.08-.15-.12-.22Z"/>
          <path class="cls-1" d="M394.73,66.79c-5.49-12.98-13.34-24.63-23.35-34.64-10.01-10.01-21.66-17.86-34.64-23.35C323.29,3.11,309.02.23,294.31.23s-28.98,2.88-42.43,8.57c-12.98,5.49-24.63,13.35-34.64,23.35-5.81,5.81-10.9,12.18-15.22,19.04-.04.07-.09.13-.13.2,1.43,2.29,2.78,4.62,4.04,7.02,1.43,2.72,2.76,5.52,3.96,8.37.66,1.56,1.28,3.14,1.87,4.72.99,2.67,1.87,5.37,2.64,8.1,1.3,4.59,2.29,9.26,2.96,14,.38,2.67.67,5.35.85,8.06l.63-.06c1.72-17.38,9.32-33.5,21.84-46.01,14.32-14.32,33.37-22.21,53.63-22.21s39.3,7.89,53.62,22.21c14.32,14.32,22.21,33.37,22.21,53.62s-7.89,39.3-22.21,53.62c-13.31,13.31-30.71,21.07-49.37,22.09-.17,0-.33.02-.5.02-1.25.06-2.5.09-3.76.09-.08,0-.16,0-.23,0-1.35,0-2.69.03-4.03.08-.17,0-.33.01-.5.02-2.4.1-4.79.28-7.16.54-.17.02-.34.04-.51.06-2.85.32-5.68.75-8.49,1.3-.17.04-.35.07-.52.11-3.25.65-6.47,1.44-9.65,2.39h0c-.19.06-.38.11-.58.18-2.82.85-5.6,1.82-8.35,2.91-.12.05-.25.1-.37.15-.6.24-1.21.49-1.81.74-.08.03-.15.06-.23.09-.13.06-.26.11-.39.17-5.23,2.23-10.23,4.85-15,7.84-6.94,4.35-13.38,9.47-19.25,15.34-5.81,5.81-10.9,12.18-15.22,19.05-.04.07-.09.13-.13.2,1.02,1.63,2,3.29,2.93,4.97.38.68.75,1.36,1.11,2.05,1.43,2.72,2.76,5.52,3.96,8.37.66,1.56,1.29,3.14,1.87,4.72l.22-.07,2.63,8.1h0l-2.63-8.1-.22.07c.99,2.67,1.87,5.37,2.64,8.1l.13-.04-.13.04c1.29,4.59,2.28,9.27,2.96,14h0c.4,2.8.7,5.63.88,8.48l.23-.02h0v-.07s.35-.16.35-.16c1.68-17.47,9.29-33.67,21.86-46.23,13.2-13.2,30.4-20.93,48.86-22.07.17-.01.33-.02.5-.03,1.34-.07,2.68-.11,4.03-.12h.23c1.26,0,2.51-.02,3.76-.06.17,0,.33-.01.5-.02,2.4-.09,4.79-.26,7.16-.51.17-.01.34-.04.51-.05,2.85-.31,5.68-.72,8.48-1.26.17-.03.35-.06.52-.1,3.24-.63,6.44-1.41,9.6-2.33.19-.06.38-.11.57-.17h0c2.82-.84,5.61-1.8,8.37-2.87.13-.05.25-.1.38-.15.58-.23,1.16-.46,1.74-.7.21-.08.41-.17.61-.25.08-.03.15-.06.23-.09,5.36-2.27,10.5-4.94,15.39-8,6.94-4.35,13.38-9.48,19.25-15.35,10.01-10,17.86-21.66,23.35-34.64,5.69-13.45,8.57-27.72,8.57-42.43s-2.88-28.98-8.57-42.43Z"/>
        </g>
      </g>
    </g>
  </g>
</svg>